<?xml version="1.0" encoding="UTF-8"?>
<svg id="Layer_2" data-name="Layer 2" xmlns="http://www.w3.org/2000/svg" viewBox="0 0 790.2 720">
  <defs>
    <style>
      .cls-1 {
        fill: #fff;
        fill-rule: evenodd;
      }

      .cls-2 {
        isolation: isolate;
      }
    </style>
  </defs>
  <g id="Shape_1" data-name="Shape 1" class="cls-2">
    <g id="Shape_1-2" data-name="Shape 1">
      <path class="cls-1" d="M787.08,551.97c-7.21-8.84-60.02-16.83-105.51-3.26-12.76,4.08-23.98,9.66-34.38,16.87-8.03,5.58-6.38,12.72,1.58,11.98,8.79-1.74,20.01-2.48,32.77-4.08,27.96-2.41,60.77-3.19,68.69,7.19,11.18,13.59-12.74,72.9-23.2,98.45-3.17,8.06,4.04,11.25,11.22,5.67,35.96-30.42,51.16-85.69,51.94-114.5v-4.8c0-6.45-1.56-11.25-3.12-13.52ZM467.37,185.53c-19.12,1.52-41.21,3.03-63.3,6-33.82,4.35-67.65,10.29-95.58,23.5-54.42,22.18-91.21,69.29-91.21,138.55,0,86.98,55.91,131.1,126.48,131.1,23.58,0,42.68-2.88,60.31-7.32,28-8.84,51.54-25.06,79.47-54.47,16.22,22.09,20.59,32.42,48.57,55.99,7.34,2.97,14.68,2.97,20.57-1.47,17.65-14.71,48.5-41.24,64.72-55.97,7.32-5.96,5.87-14.73,1.47-22.14-16.22-20.62-32.35-38.34-32.35-78.06v-132.62c0-56.08,4.35-107.6-36.75-145.87C515.92,11.72,462.97,0,421.83,0h-17.67c-75.01,4.4-154.41,36.75-172.1,129.67-2.9,11.72,5.96,16.2,11.82,17.7l82.35,10.35c8.84-1.56,13.23-8.88,14.68-16.29,7.43-32.33,33.87-48.56,63.27-51.53h5.91c17.63,0,36.72,7.41,47.05,22.03,11.67,17.74,10.29,41.35,10.29,61.92l-.07,11.67ZM451.19,360.88c-10.29,20.64-27.96,33.9-47.08,38.34-2.92,0-7.3,1.52-11.74,1.52-32.35,0-51.54-25.06-51.54-61.92,0-47.09,27.98-69.27,63.27-79.55,19.12-4.4,41.21-5.91,63.27-5.91v17.7c-.02,33.92,1.36,60.41-16.2,89.84ZM701.5,601.53c-6.4,2.32-13.61,5.62-19.97,7.94-91.94,36.08-188.52,52.91-278.06,52.91-142.23,0-279.66-39.27-390.73-104.12-10.4-5.58-17.6,4.8-8.77,12.03,103.05,93.66,238.88,149.71,390.75,149.71,94.26,0,202.92-26.33,286.83-76.79,11.22-6.49,22.36-13.75,32.75-21.71,14.39-10.33,1.58-26.47-12.81-19.97Z"/>
    </g>
  </g>
</svg>