<?xml version="1.0" encoding="UTF-8"?>
<svg id="Layer_2" data-name="Layer 2" xmlns="http://www.w3.org/2000/svg" viewBox="0 0 906.55 720.01">
  <defs>
    <style>
      .cls-1 {
        fill: #fff;
      }

      .cls-2 {
        isolation: isolate;
      }
    </style>
  </defs>
  <g id="playstation" class="cls-2">
    <g id="playstation-2" data-name="playstation">
      <path class="cls-1" d="M545.35,176.22v225.02c92.08,45.78,164.51-.02,164.51-120.8s-42.4-178.85-167.43-223.14C493.23,40.3,401.8,11.93,338.97,0v671.76l147.7,48.25V156.55c0-26.34,11.41-44.06,29.88-37.83,24.07,6.82,28.81,31.12,28.81,57.5ZM838.64,472.05c-61.78-24.21-140.55-32.33-204.87-25.14-64.25,7.35-110.01,24.02-110.01,24.02l-9.12,3.18v91.33l158.33-57.43c26.9-9.92,66.52-12.02,88.43-4.69,21.85,7.37,17.73,21.48-9.21,31.35l-237.55,87.18v87.98l322.8-119.33s43.31-16.42,61.04-39.46c17.69-22.95,9.86-56.31-59.84-78.98ZM17.22,523.84c-32.59,24.92-20.69,67.99,50.83,88.74,76.73,26.04,154.59,31.17,227.72,18.87,4.74-.8,9.88-1.65,14.53-2.45v-79.03l-73.06,27.23c-26.96,9.98-66.56,12.07-88.45,4.69-21.82-7.33-17.77-21.41,9.17-31.35l152.34-56.17v-88.26l-211.65,77.43s-51.23,17.31-81.42,40.3Z"/>
    </g>
  </g>
</svg>