<?xml version="1.0" encoding="UTF-8"?>
<svg id="Layer_2" data-name="Layer 2" xmlns="http://www.w3.org/2000/svg" viewBox="0 0 719.99 720">
  <defs>
    <style>
      .cls-1 {
        fill: #fff;
      }

      .cls-2 {
        isolation: isolate;
      }
    </style>
  </defs>
  <g id="steam" class="cls-2">
    <g id="steam-2" data-name="steam">
      <path class="cls-1" d="M359.61,0C168.62,0,12.34,148.42,0,336.08l.08.22,193.32,79.63c5.26-3.46,10.86-6.46,16.85-8.9,13.57-5.59,27.88-8.1,42.14-7.45l88.04-127.97c-.03-.57-.03-1.17-.03-1.78,0-75.52,61.3-136.96,136.65-136.96s136.65,61.44,136.65,136.96-61.27,137.01-136.65,137.01c-1.02,0-2.07-.03-3.09-.06l-125.97,90.08c.37,13.91-2.19,27.84-7.69,41.13-21.12,50.83-79.67,75.03-130.45,53.8-31.04-12.95-52.07-39.86-58.94-70.55,0,0-125.37-51.76-135.95-56.13-.47-.19-.71-.29-.71-.29,0,0,.32.4.8,1.04,45.25,147.17,182.4,254.14,344.56,254.14,199.03,0,360.38-161.18,360.38-360S558.64,0,359.61,0ZM223.47,551.34l-44.49-18.45c7.88,16.47,21.53,30.28,39.62,37.82,39.21,16.35,84.31-2.29,100.66-41.56,7.91-18.97,7.94-39.99.12-59.02-7.81-19.04-22.56-33.93-41.56-41.84-18.85-7.85-39.02-7.6-56.76-.87l45.99,19.07c28.9,12.05,42.58,45.3,30.52,74.26-12.02,28.92-45.19,42.64-74.11,30.59ZM568.12,269.84c0-50.29-40.86-91.25-91.07-91.25s-91.04,40.96-91.04,91.25,40.86,91.28,91.04,91.28,91.07-40.94,91.07-91.28ZM408.83,269.7c0-37.86,30.63-68.57,68.37-68.57s68.4,30.71,68.4,68.57-30.63,68.55-68.4,68.55-68.37-30.68-68.37-68.55Z"/>
    </g>
  </g>
</svg>