<?xml version="1.0" encoding="UTF-8"?>
<svg id="Layer_2" data-name="Layer 2" xmlns="http://www.w3.org/2000/svg" viewBox="0 0 716.98 720">
  <defs>
    <style>
      .cls-1 {
        fill: #fff;
        fill-rule: evenodd;
      }

      .cls-2 {
        isolation: isolate;
      }
    </style>
  </defs>
  <g id="switch" class="cls-2">
    <g id="switch-2" data-name="switch">
      <path class="cls-1" d="M111.6,216.23c0,37.36,30.44,67.92,67.64,67.92s67.64-30.57,67.64-67.92-30.44-67.93-67.64-67.93-67.64,30-67.64,67.93ZM340.45,0h-156.7C82.29,0,0,82.64,0,184.53v350.94c0,101.89,82.29,184.53,183.75,184.53h156.7c2.82,0,5.07-2.26,5.07-5.09V5.09c0-2.83-2.26-5.09-5.07-5.09ZM288.03,662.27h-104.28c-33.82,0-65.38-13.02-89.06-37.36-23.67-23.77-37.2-55.47-37.2-89.43V184.53c0-33.96,12.96-65.66,37.2-89.43,23.67-23.77,55.24-37.36,89.06-37.36h104.28v604.53ZM533.22,0h-111.04c-2.82,0-4.51,2.26-4.51,4.53v710.38c0,2.83,2.25,5.09,5.07,5.09h110.48c101.46,0,183.75-82.64,183.75-184.53V184.53C716.98,82.64,634.68,0,533.22,0ZM559.15,469.25c-40.02,0-72.71-32.83-72.71-73.02.56-40.19,32.69-73.02,72.71-73.02s72.71,32.83,72.71,73.02-32.69,73.02-72.71,73.02Z"/>
    </g>
  </g>
</svg>