<?xml version="1.0" encoding="UTF-8"?>
<svg id="Layer_2" data-name="Layer 2" xmlns="http://www.w3.org/2000/svg" viewBox="0 0 719.98 720.29">
  <defs>
    <style>
      .cls-1 {
        fill: #fff;
        fill-rule: evenodd;
      }

      .cls-2 {
        isolation: isolate;
      }
    </style>
  </defs>
  <g id="xbox" class="cls-2">
    <g id="xbox-2" data-name="xbox">
      <path class="cls-1" d="M248.02,214.53l14.11-17.33-25.84-23.36c-44.28-40.04-72.84-59.75-99.57-68.76-22.02-7.42-23.63-6.96-41.69,11.83C52.62,161.04,17.33,232.73,7.51,294.7-.37,344.42-1.34,358.27,1.36,382.5c8.19,73.36,25.16,124.08,58.75,175.6,13.78,21.14,17.56,25.17,13.44,14.35-6.09-16.03-.38-54.53,13.78-92.88,26.06-70.55,95.19-184.58,160.69-265.03ZM193.46,49.79c9.78-.49,25.15.37,34.16,1.92,25.71,4.42,72.24,20.86,102.41,36.18,15.16,7.7,28.41,14.15,29.44,14.34,1.03.19,15.17-6.13,31.42-14.04,53.88-26.22,104.07-40.13,138.5-38.39l17.33.88-7.55-4.65c-25.41-15.64-70.51-32.42-108.81-40.49-35.46-7.47-103.19-7.38-139.22.18-32.03,6.72-55.63,14.58-83.92,27.95-34.02,16.07-34.97,17.18-13.76,16.11ZM714.43,289.51c-10.68-50.72-31.75-99.43-60.4-139.62-18.5-25.95-41.41-49.73-47.92-49.73-10.56,0-35.12,9.48-52.3,20.19-21.78,13.57-41.96,29.56-71.04,56.25l-22.27,20.44,20.58,25.87c65.38,82.18,136.58,203.04,157.88,268.01,9.84,30,14.03,59.74,10.71,75.94h0q-2.54,12.4,1.98,6.67c8.78-11.17,28.83-45.52,36.89-63.2,10.76-23.6,21.78-58.4,27-85.22,6.36-32.69,5.79-102.83-1.11-135.6ZM362.33,291.5c-6.99-1.56-71.67,56.19-118.09,105.46-81.75,86.76-129.53,162.86-129.53,206.31,0,21.63,9.13,32.47,49.55,58.84,48.23,31.47,104.38,51.38,159.84,56.69h0c46.44,4.45,102.81-1.3,145.73-14.85,52.08-16.44,122.97-59.25,134.39-81.14,15.03-28.81-14.55-93.43-78.9-172.35-40.69-49.91-149.39-155.92-162.99-158.96Z"/>
    </g>
  </g>
</svg>